<svg width="15" height="15" viewBox="0 0 15 15" fill="none" xmlns="http://www.w3.org/2000/svg">
<path d="M4.12359 0.189697H14.62V11.1551L10.8713 14.8103H0L0 3.84484L4.12359 0.189697Z" fill="url(#paint0_linear_406_1309)"/>
<path d="M7.08196 3.18089C7.26194 2.85305 7.73294 2.85305 7.91292 3.18089L9.02435 5.20541C9.09274 5.32999 9.21342 5.41731 9.35314 5.4433L11.6298 5.86683C11.9996 5.93563 12.1457 6.38709 11.8864 6.65956L10.2988 8.32779C10.2002 8.43142 10.1536 8.57407 10.1721 8.71593L10.4699 10.9957C10.5185 11.3673 10.1368 11.6456 9.79779 11.4858L7.6996 10.4963C7.57159 10.436 7.4233 10.436 7.29528 10.4963L5.1971 11.4858C4.85808 11.6456 4.47641 11.3673 4.52496 10.9957L4.82274 8.71593C4.84127 8.57407 4.79473 8.43142 4.6961 8.32779L3.10845 6.65956C2.84914 6.38709 2.99531 5.93563 3.3651 5.86683L5.64175 5.4433C5.78147 5.41731 5.90215 5.32999 5.97054 5.20541L7.08196 3.18089Z" fill="white"/>
<defs>
<linearGradient id="paint0_linear_406_1309" x1="10.8713" y1="12.4791" x2="3.81433" y2="1.63661" gradientUnits="userSpaceOnUse">
<stop offset="0.325355" stop-color="#C9603F"/>
<stop offset="0.809411" stop-color="#FFA573"/>
</linearGradient>
</defs>
</svg>
