<svg width="15" height="15" viewBox="0 0 15 15" fill="none" xmlns="http://www.w3.org/2000/svg">
<path d="M4.36358 0.189697H14.86V11.1551L11.1113 14.8103H0.23999L0.23999 3.84484L4.36358 0.189697Z" fill="url(#paint0_linear_406_1321)"/>
<path d="M7.32192 3.18089C7.5019 2.85305 7.9729 2.85305 8.15288 3.18089L9.2643 5.20541C9.3327 5.32999 9.45338 5.41731 9.5931 5.4433L11.8697 5.86683C12.2395 5.93563 12.3857 6.38709 12.1264 6.65956L10.5387 8.32779C10.4401 8.43142 10.3936 8.57407 10.4121 8.71593L10.7099 10.9957C10.7584 11.3673 10.3768 11.6456 10.0377 11.4858L7.93956 10.4963C7.81155 10.436 7.66326 10.436 7.53524 10.4963L5.43705 11.4858C5.09804 11.6456 4.71637 11.3673 4.76492 10.9957L5.0627 8.71593C5.08123 8.57407 5.03469 8.43142 4.93606 8.32779L3.34841 6.65956C3.0891 6.38709 3.23527 5.93563 3.60506 5.86683L5.88171 5.4433C6.02143 5.41731 6.14211 5.32999 6.2105 5.20541L7.32192 3.18089Z" fill="white"/>
<defs>
<linearGradient id="paint0_linear_406_1321" x1="11.1113" y1="12.4791" x2="4.05432" y2="1.63661" gradientUnits="userSpaceOnUse">
<stop offset="0.325355" stop-color="#DFAA5A"/>
<stop offset="0.809411" stop-color="#FFD873"/>
</linearGradient>
</defs>
</svg>
