<svg width="16" height="15" viewBox="0 0 16 15" fill="none" xmlns="http://www.w3.org/2000/svg">
<path d="M4.74358 0.189697H15.24V11.1551L11.4913 14.8103H0.619995L0.619995 3.84484L4.74358 0.189697Z" fill="url(#paint0_linear_406_1315)"/>
<path d="M7.70193 3.18089C7.88191 2.85305 8.35291 2.85305 8.53289 3.18089L9.64431 5.20541C9.7127 5.32999 9.83338 5.41731 9.9731 5.4433L12.2497 5.86683C12.6195 5.93563 12.7657 6.38709 12.5064 6.65956L10.9188 8.32779C10.8201 8.43142 10.7736 8.57407 10.7921 8.71593L11.0899 10.9957C11.1384 11.3673 10.7568 11.6456 10.4178 11.4858L8.31957 10.4963C8.19155 10.436 8.04326 10.436 7.91525 10.4963L5.81706 11.4858C5.47805 11.6456 5.09638 11.3673 5.14492 10.9957L5.4427 8.71593C5.46123 8.57407 5.41469 8.43142 5.31606 8.32779L3.72842 6.65956C3.46911 6.38709 3.61527 5.93563 3.98507 5.86683L6.26171 5.4433C6.40143 5.41731 6.52211 5.32999 6.5905 5.20541L7.70193 3.18089Z" fill="white"/>
<defs>
<linearGradient id="paint0_linear_406_1315" x1="11.4913" y1="12.4791" x2="4.43433" y2="1.63661" gradientUnits="userSpaceOnUse">
<stop offset="0.325355" stop-color="#B3B3B3"/>
<stop offset="0.809411" stop-color="#F4F4F4"/>
</linearGradient>
</defs>
</svg>
