<svg width="197" height="271" viewBox="0 0 197 271" fill="none" xmlns="http://www.w3.org/2000/svg">
<path d="M51.9606 122.41C51.9606 122.41 41.4306 149.13 22.4106 147.03C3.39055 144.93 6.89057 114.66 6.87057 109.55" stroke="#FF4200" stroke-width="13.202" stroke-miterlimit="10" stroke-linecap="round" stroke-linejoin="round"/>
<path d="M127.861 9.53999C127.861 14.05 129.831 17.75 132.321 18.08C132.441 18.09 132.561 18.1 132.681 18.1C135.351 18.1 137.501 14.27 137.501 9.53999C137.501 4.81999 135.351 0.98999 132.681 0.98999L131.901 1.10999C129.611 1.76999 127.861 5.28999 127.861 9.53999Z" fill="black"/>
<path d="M133.121 14.04C132.841 14.02 132.551 14.03 132.271 14.06C132.341 14.08 132.421 14.09 132.491 14.1C132.551 14.11 132.621 14.11 132.681 14.11C132.831 14.11 132.981 14.09 133.121 14.04Z" fill="black"/>
<path d="M132.231 5.04998C132.521 5.02998 132.801 5.02998 133.081 5.03998C132.951 4.99998 132.821 4.97998 132.681 4.97998L132.261 5.03998C132.251 5.03998 132.241 5.04998 132.231 5.04998Z" fill="black"/>
<path d="M131.901 1.10999L132.681 0.98999C132.411 0.98999 132.151 1.02999 131.901 1.10999Z" fill="black"/>
<path d="M130.111 9.54002C130.111 11.82 131.051 13.71 132.271 14.06C132.551 14.03 132.841 14.02 133.121 14.04C134.741 14.09 136.281 14.7 137.521 15.8C139.041 17.15 139.881 19.02 139.881 21.05V45.91H145.271V15.88C145.271 11.74 143.001 8.42002 139.731 6.59002C137.661 5.60002 135.391 5.07002 133.081 5.04002C132.801 5.03002 132.521 5.03002 132.231 5.05002C131.021 5.42002 130.111 7.29002 130.111 9.54002Z" fill="#292929"/>
<path d="M139.731 6.58997C143.001 8.41997 145.271 11.74 145.271 15.88V45.91H148.881V21.05C148.881 16.48 146.921 12.12 143.511 9.07997C142.361 8.05997 141.091 7.22997 139.731 6.58997Z" fill="black"/>
<path d="M84.3906 25.78V48.68L87.9005 48.94V26.73C87.9005 24.35 89.0906 22.22 90.9406 20.95C90.4806 20.07 90.1206 19.01 89.9106 17.84C86.6106 19.07 84.3906 22.22 84.3906 25.78Z" fill="black"/>
<path d="M78.9006 26.73V50.17H87.9005V48.94L84.3906 48.68V25.78C84.3906 22.22 86.6106 19.07 89.9106 17.84C89.7506 17 89.6706 16.11 89.6706 15.18C89.6706 13.83 89.8506 12.55 90.1706 11.42C83.5806 13.46 78.9006 19.61 78.9006 26.73Z" fill="#292929"/>
<path d="M131.901 1.10999L94.4906 6.61999C94.4806 6.61999 94.4806 6.61999 94.4706 6.61999C93.1106 6.62999 91.8806 7.63999 91.0106 9.26999L129.071 3.90999C129.771 2.44999 130.771 1.42999 131.901 1.10999Z" fill="black"/>
<path d="M89.6706 15.18C89.6706 17.41 90.1506 19.44 90.9406 20.95C91.8206 22.66 93.0906 23.73 94.4906 23.73C94.6106 23.73 94.7205 23.7 94.8405 23.69L95.1906 23.64C95.2006 23.64 95.2106 23.63 95.2206 23.63L132.321 18.08C130.871 17.89 129.591 16.55 128.791 14.57C128.201 13.16 127.861 11.42 127.861 9.53996C127.861 8.92996 127.901 8.33996 127.971 7.76996L89.8806 12.77C89.7406 13.53 89.6706 14.34 89.6706 15.18Z" fill="black"/>
<path d="M45.4906 237.57L70.2306 237.83L70.4006 229.75L50.8606 230.27C48.5406 232.08 46.7506 234.64 45.4906 237.57Z" fill="#10105B"/>
<path d="M44.3505 255.88C46.9505 264.23 51.9505 266.54 51.9505 266.54L70.4006 267.03L69.6806 264.03L70.2305 237.83L45.4906 237.57C43.0406 243.28 42.6305 250.36 44.3505 255.88Z" fill="#25258C"/>
<path d="M149.551 238.65L174.291 238.91L174.191 229.94L154.961 229.66C154.961 229.66 151.571 233.27 149.551 238.65Z" fill="#10105B"/>
<path d="M149.681 262.72C151.831 267.88 155.161 269.51 155.161 269.51L174.191 270.01L174.591 266.25L174.291 238.91L149.551 238.65C149.361 239.14 149.191 239.64 149.031 240.16C147.131 246.35 147.531 257.57 149.681 262.72Z" fill="#25258C"/>
<path d="M70.4106 267.03C75.6738 267.03 79.9406 258.685 79.9406 248.39C79.9406 238.095 75.6738 229.75 70.4106 229.75C65.1473 229.75 60.8806 238.095 60.8806 248.39C60.8806 258.685 65.1473 267.03 70.4106 267.03Z" fill="#10105B"/>
<path d="M70.4106 259.43C73.3542 259.43 75.7406 254.366 75.7406 248.12C75.7406 241.874 73.3542 236.81 70.4106 236.81C67.4669 236.81 65.0806 241.874 65.0806 248.12C65.0806 254.366 67.4669 259.43 70.4106 259.43Z" fill="#25258C"/>
<path d="M174.191 270.01C179.454 270.01 183.721 261.038 183.721 249.97C183.721 238.902 179.454 229.93 174.191 229.93C168.927 229.93 164.661 238.902 164.661 249.97C164.661 261.038 168.927 270.01 174.191 270.01Z" fill="#10105B"/>
<path d="M174.191 261.83C177.134 261.83 179.521 256.39 179.521 249.68C179.521 242.97 177.134 237.53 174.191 237.53C171.247 237.53 168.861 242.97 168.861 249.68C168.861 256.39 171.247 261.83 174.191 261.83Z" fill="#25258C"/>
<path d="M141.581 231.27L182.061 230.28C190.021 230.09 196.371 223.58 196.371 215.62V190.05L144.411 188.28L142.271 188.81L141.581 231.27Z" fill="#49CDFF"/>
<path d="M142.271 188.81L144.411 188.28L196.371 190.05V73.4C196.371 65.56 191.451 58.57 184.071 55.92L144.681 41.81L142.271 188.81Z" fill="#292929"/>
<path d="M155.531 56.62V188.66L146.081 188.8C142.981 188.84 140.491 191.37 140.491 194.48V210.45C140.491 213.31 138.161 215.62 135.311 215.61L47.1606 215.31C44.3206 215.3 42.0206 212.99 42.0206 210.14V196.07C42.0206 192.9 39.4206 190.35 36.2606 190.39L29.3006 190.49V66.13C29.3006 58.15 35.3506 51.47 43.2906 50.67L138.451 41.16C147.591 40.25 155.531 47.43 155.531 56.62Z" fill="black"/>
<path d="M92.3906 215.46L76.7906 231.06L44.7706 230.92C36.2106 230.88 29.3006 223.93 29.3006 215.38V190.49L36.2606 190.39C39.4206 190.35 42.0206 192.9 42.0206 196.07V210.14C42.0206 212.99 44.3206 215.3 47.1606 215.31L92.3906 215.46Z" fill="#FF4200"/>
<path d="M155.531 188.66V215.82C155.531 224.42 148.531 231.39 139.921 231.35L76.7906 231.06L92.3906 215.46L135.311 215.61C138.161 215.62 140.491 213.31 140.491 210.45V194.48C140.491 191.37 142.981 188.84 146.081 188.8L155.531 188.66Z" fill="#00A9EA"/>
<path d="M89.8806 12.77L127.971 7.76997C128.061 6.96997 128.221 6.21997 128.441 5.51997C128.611 4.93997 128.821 4.39997 129.071 3.90997L91.0106 9.26997C90.6706 9.89997 90.3906 10.62 90.1706 11.42C90.0506 11.85 89.9506 12.3 89.8806 12.77Z" fill="#292929"/>
<path d="M84.5406 212.88C93.4544 212.88 100.681 205.654 100.681 196.74C100.681 187.826 93.4544 180.6 84.5406 180.6C75.6267 180.6 68.4006 187.826 68.4006 196.74C68.4006 205.654 75.6267 212.88 84.5406 212.88Z" fill="white"/>
<path d="M89.0106 192.27V205.08C89.0106 206.23 88.0806 207.16 86.9306 207.16H74.1206L89.0106 192.27Z" fill="#25258C"/>
<path d="M94.9605 186.31L90.9906 190.28H76.1006L79.0506 187.33C79.7006 186.68 80.5906 186.31 81.5106 186.31H94.9605Z" fill="#FF4200"/>
<path d="M94.9605 186.31V199.76C94.9605 200.68 94.5906 201.57 93.9406 202.22L90.9906 205.17V190.28L94.9605 186.31Z" fill="#00A9EA"/>
<path d="M89.0106 192.27L74.1206 207.16V194.35C74.1206 193.2 75.0506 192.27 76.2006 192.27H89.0106Z" fill="#FF4200"/>
<path d="M176.291 115.9C176.291 115.9 182.471 144.62 163.921 149.93C145.371 155.24 136.971 125.93 134.981 121.21" stroke="#FF4200" stroke-width="13.202" stroke-miterlimit="10" stroke-linecap="round" stroke-linejoin="round"/>
<path d="M67.9106 86.72V101.24C67.9106 103.69 66.0206 105.73 63.5706 105.9C60.8606 106.09 58.5606 103.95 58.5606 101.24V86.72C58.5606 84.29 60.4306 82.26 62.8506 82.06C65.5706 81.84 67.9106 83.99 67.9106 86.72Z" fill="#292929"/>
<path d="M112.511 83.13V98.22C112.511 100.66 110.631 102.7 108.191 102.88C105.481 103.09 103.161 100.94 103.161 98.22V83.13C103.161 80.73 104.981 78.72 107.371 78.48C110.121 78.2 112.511 80.37 112.511 83.13Z" fill="#292929"/>
<path d="M109.771 126.13C109.921 126.13 110.051 126.26 110.051 126.41V139.34C110.051 146.16 104.711 151.7 97.8906 151.95L75.1706 152.78C75.0106 152.79 74.8506 152.79 74.7006 152.79C67.7506 152.79 62.0906 147.13 62.0906 140.17V128.71C62.0906 128.56 62.2106 128.44 62.3606 128.43L109.761 126.12L109.771 126.13ZM109.771 124.13C109.731 124.13 109.691 124.13 109.661 124.13L62.2606 126.44C61.0506 126.5 60.0906 127.5 60.0906 128.72V140.18C60.0906 148.28 66.6606 154.8 74.7006 154.8C74.8806 154.8 75.0606 154.8 75.2406 154.79L97.9605 153.96C105.821 153.67 112.041 147.22 112.041 139.35V126.42C112.051 125.14 111.021 124.13 109.771 124.13Z" fill="white"/>
<path d="M67.9106 84.25V98.77C67.9106 101.22 66.0206 103.26 63.5706 103.43C60.8606 103.62 58.5606 101.48 58.5606 98.77V84.25C58.5606 81.82 60.4306 79.79 62.8506 79.59C65.5706 79.36 67.9106 81.51 67.9106 84.25Z" fill="white"/>
<path d="M112.511 80.66V95.75C112.511 98.19 110.631 100.23 108.191 100.41C105.481 100.62 103.161 98.47 103.161 95.75V80.66C103.161 78.26 104.981 76.25 107.371 76.01C110.121 75.73 112.511 77.89 112.511 80.66Z" fill="white"/>
</svg>
