<svg width="197" height="271" viewBox="0 0 197 271" fill="none" xmlns="http://www.w3.org/2000/svg">
<path d="M144.359 122.41C144.359 122.41 154.889 149.13 173.909 147.03C192.929 144.93 189.429 114.66 189.449 109.55" stroke="black" stroke-width="13.202" stroke-miterlimit="10" stroke-linecap="round" stroke-linejoin="round"/>
<path d="M68.8194 9.53999C68.8194 14.05 66.8494 17.75 64.3594 18.08C64.2394 18.09 64.1194 18.1 63.9994 18.1C61.3294 18.1 59.1794 14.27 59.1794 9.53999C59.1794 4.81999 61.3294 0.98999 63.9994 0.98999L64.7794 1.10999C67.0694 1.76999 68.8194 5.28999 68.8194 9.53999Z" fill="black"/>
<path d="M63.5594 14.04C63.8394 14.02 64.1294 14.03 64.4094 14.06C64.3394 14.08 64.2594 14.09 64.1894 14.1C64.1294 14.11 64.0594 14.11 63.9994 14.11C63.8494 14.11 63.6994 14.09 63.5594 14.04Z" fill="black"/>
<path d="M64.4494 5.04998C64.1594 5.02998 63.8794 5.02998 63.5994 5.03998C63.7294 4.99998 63.8594 4.97998 63.9994 4.97998L64.4194 5.03998C64.4294 5.03998 64.4394 5.04998 64.4494 5.04998Z" fill="black"/>
<path d="M64.7795 1.10999L63.9995 0.98999C64.2695 0.98999 64.5295 1.02999 64.7795 1.10999Z" fill="black"/>
<path d="M66.5694 9.54002C66.5694 11.82 65.6294 13.71 64.4094 14.06C64.1294 14.03 63.8394 14.02 63.5594 14.04C61.9394 14.09 60.3994 14.7 59.1594 15.8C57.6394 17.15 56.7994 19.02 56.7994 21.05V45.91H51.4094V15.88C51.4094 11.74 53.6794 8.42002 56.9494 6.59002C59.0194 5.60002 61.2894 5.07002 63.5994 5.04002C63.8794 5.03002 64.1594 5.03002 64.4494 5.05002C65.6594 5.42002 66.5694 7.29002 66.5694 9.54002Z" fill="#292929"/>
<path d="M56.9494 6.58997C53.6794 8.41997 51.4094 11.74 51.4094 15.88V45.91H47.7994V21.05C47.7994 16.48 49.7594 12.12 53.1694 9.07997C54.3194 8.05997 55.5894 7.22997 56.9494 6.58997Z" fill="black"/>
<path d="M112.289 25.78V48.68L108.779 48.94V26.73C108.779 24.35 107.589 22.22 105.739 20.95C106.199 20.07 106.559 19.01 106.769 17.84C110.069 19.07 112.289 22.22 112.289 25.78Z" fill="black"/>
<path d="M117.779 26.73V50.17H108.779V48.94L112.289 48.68V25.78C112.289 22.22 110.069 19.07 106.769 17.84C106.929 17 107.009 16.11 107.009 15.18C107.009 13.83 106.829 12.55 106.509 11.42C113.099 13.46 117.779 19.61 117.779 26.73Z" fill="#292929"/>
<path d="M64.7794 1.10999L102.189 6.61999C102.199 6.61999 102.199 6.61999 102.209 6.61999C103.569 6.62999 104.799 7.63999 105.669 9.26999L67.6094 3.90999C66.9094 2.44999 65.9094 1.42999 64.7794 1.10999Z" fill="black"/>
<path d="M107.009 15.18C107.009 17.41 106.529 19.44 105.739 20.95C104.859 22.66 103.589 23.73 102.189 23.73C102.069 23.73 101.959 23.7 101.839 23.69L101.489 23.64C101.479 23.64 101.469 23.63 101.459 23.63L64.3594 18.08C65.8094 17.89 67.0894 16.55 67.8894 14.57C68.4794 13.16 68.8194 11.42 68.8194 9.53996C68.8194 8.92996 68.7794 8.33996 68.7094 7.76996L106.799 12.77C106.939 13.53 107.009 14.34 107.009 15.18Z" fill="black"/>
<path d="M151.189 237.57L126.449 237.83L126.279 229.75L145.819 230.27C148.139 232.08 149.929 234.64 151.189 237.57Z" fill="black"/>
<path d="M152.329 255.88C149.729 264.23 144.729 266.54 144.729 266.54L126.279 267.03L126.999 264.03L126.449 237.83L151.189 237.57C153.639 243.28 154.049 250.36 152.329 255.88Z" fill="#292929"/>
<path d="M47.1295 238.65L22.3895 238.91L22.4895 229.94L41.7195 229.66C41.7195 229.66 45.1095 233.27 47.1295 238.65Z" fill="black"/>
<path d="M46.9995 262.72C44.8495 267.88 41.5195 269.51 41.5195 269.51L22.4895 270.01L22.0895 266.25L22.3895 238.91L47.1295 238.65C47.3195 239.14 47.4895 239.64 47.6495 240.16C49.5495 246.35 49.1495 257.57 46.9995 262.72Z" fill="#292929"/>
<path d="M126.279 267.03C131.543 267.03 135.809 258.685 135.809 248.39C135.809 238.095 131.543 229.75 126.279 229.75C121.016 229.75 116.749 238.095 116.749 248.39C116.749 258.685 121.016 267.03 126.279 267.03Z" fill="black"/>
<path d="M126.279 259.43C129.223 259.43 131.609 254.366 131.609 248.12C131.609 241.874 129.223 236.81 126.279 236.81C123.336 236.81 120.949 241.874 120.949 248.12C120.949 254.366 123.336 259.43 126.279 259.43Z" fill="#292929"/>
<path d="M22.4895 270.01C27.7527 270.01 32.0195 261.038 32.0195 249.97C32.0195 238.902 27.7527 229.93 22.4895 229.93C17.2262 229.93 12.9595 238.902 12.9595 249.97C12.9595 261.038 17.2262 270.01 22.4895 270.01Z" fill="black"/>
<path d="M22.4894 261.83C25.4331 261.83 27.8194 256.39 27.8194 249.68C27.8194 242.97 25.4331 237.53 22.4894 237.53C19.5457 237.53 17.1594 242.97 17.1594 249.68C17.1594 256.39 19.5457 261.83 22.4894 261.83Z" fill="#292929"/>
<path d="M55.0994 231.27L14.6194 230.28C6.65945 230.09 0.309448 223.58 0.309448 215.62V190.05L52.2694 188.28L54.4094 188.81L55.0994 231.27Z" fill="#10105B"/>
<path d="M54.4094 188.81L52.2694 188.28L0.309448 190.05V73.4C0.309448 65.56 5.22945 58.57 12.6094 55.92L51.9994 41.81L54.4094 188.81Z" fill="#DD1905"/>
<path d="M167.389 66.13V190.49L160.429 190.39C157.259 190.35 154.669 192.9 154.669 196.07V210.14C154.669 212.99 152.369 215.3 149.529 215.31L61.3794 215.61C58.5194 215.62 56.1994 213.31 56.1994 210.45V194.48C56.1994 191.37 53.7094 188.84 50.5994 188.8L41.1594 188.66V56.62C41.1594 47.43 49.0994 40.25 58.2394 41.16L153.399 50.67C161.339 51.47 167.389 58.15 167.389 66.13Z" fill="#FF4200"/>
<path d="M120.089 215.41L104.369 231.13L56.7694 231.35C48.1594 231.39 41.1594 224.42 41.1594 215.82V188.66L50.5994 188.8C53.7094 188.84 56.1994 191.37 56.1994 194.48V210.45C56.1994 213.31 58.5194 215.62 61.3794 215.61L120.089 215.41Z" fill="#25258C"/>
<path d="M167.389 190.49V215.38C167.389 223.93 160.479 230.88 151.919 230.92L104.369 231.13L120.089 215.41L149.529 215.31C152.369 215.3 154.669 212.99 154.669 210.14V196.07C154.669 192.9 157.259 190.35 160.429 190.39L167.389 190.49Z" fill="#00A9EA"/>
<path d="M106.799 12.77L68.7094 7.76997C68.6194 6.96997 68.4594 6.21997 68.2394 5.51997C68.0694 4.93997 67.8594 4.39997 67.6094 3.90997L105.669 9.26997C106.009 9.89997 106.289 10.62 106.509 11.42C106.629 11.85 106.729 12.3 106.799 12.77Z" fill="#292929"/>
<path d="M112.199 212.88C121.113 212.88 128.339 205.654 128.339 196.74C128.339 187.826 121.113 180.6 112.199 180.6C103.286 180.6 96.0594 187.826 96.0594 196.74C96.0594 205.654 103.286 212.88 112.199 212.88Z" fill="white"/>
<path d="M116.669 192.27V205.08C116.669 206.23 115.739 207.16 114.589 207.16H101.779L116.669 192.27Z" fill="#25258C"/>
<path d="M122.619 186.31L118.649 190.28H103.759L106.709 187.33C107.359 186.68 108.249 186.31 109.169 186.31H122.619Z" fill="#FF4200"/>
<path d="M122.619 186.31V199.76C122.619 200.68 122.249 201.57 121.599 202.22L118.649 205.17V190.28L122.619 186.31Z" fill="#00A9EA"/>
<path d="M116.669 192.27L101.779 207.16V194.35C101.779 193.2 102.709 192.27 103.859 192.27H116.669Z" fill="#FF4200"/>
<path d="M20.0394 115.9C20.0394 115.9 13.8594 144.62 32.4094 149.93C50.9594 155.24 59.3594 125.93 61.3494 121.21" stroke="black" stroke-width="13.202" stroke-miterlimit="10" stroke-linecap="round" stroke-linejoin="round"/>
<path d="M133.439 112.07C141.289 112.63 147.969 106.42 147.969 98.55V88.78C147.969 81.73 142.559 75.85 135.529 75.27C127.629 74.62 120.859 80.85 120.859 88.78V98.55C120.859 105.66 126.349 111.56 133.439 112.07Z" fill="#FF703F"/>
<path d="M82.6994 109.38L83.3694 109.43C91.2294 110.02 97.9394 103.8 97.9394 95.91V85.28C97.9394 78.31 92.6494 72.48 85.7194 71.79L85.0494 71.72C77.0794 70.93 70.1594 77.2 70.1594 85.21V95.86C70.1594 102.95 75.6294 108.84 82.6994 109.38Z" fill="#FF703F"/>
<path d="M135.389 130.34V136.47C135.269 146.93 126.549 155.27 116.059 154.88L100.709 154.32C90.1695 153.94 81.8195 145.28 81.8195 134.73V128.09C81.8195 125.98 83.5895 124.3 85.6995 124.4L131.879 126.65C133.849 126.74 135.389 128.37 135.389 130.34Z" fill="black"/>
<path d="M135.389 130.34V136.47L81.8195 134.49V128.09C81.8195 125.98 83.5895 124.3 85.6995 124.4L131.879 126.65C133.849 126.74 135.389 128.37 135.389 130.34Z" fill="white"/>
<path d="M85.5095 126.39H85.5995L131.779 128.64C132.679 128.68 133.389 129.43 133.389 130.33V136.24C133.389 145.42 125.929 152.89 116.749 152.89C116.539 152.89 116.339 152.89 116.129 152.88L100.779 152.32C91.2695 151.97 83.8195 144.24 83.8195 134.72V128.08C83.8195 127.15 84.5795 126.39 85.5095 126.39ZM85.5095 124.39C83.4795 124.39 81.8195 126.04 81.8195 128.09V134.73C81.8195 145.28 90.1695 153.94 100.709 154.32L116.059 154.88C116.289 154.89 116.519 154.89 116.759 154.89C127.009 154.89 135.399 146.57 135.399 136.24V130.33C135.399 128.36 133.849 126.74 131.879 126.64L85.6995 124.39C85.6395 124.4 85.5795 124.39 85.5095 124.39Z" fill="black"/>
<path d="M133.439 109.69C141.289 110.25 147.969 104.04 147.969 96.17V86.4C147.969 79.35 142.559 73.47 135.529 72.89C127.629 72.24 120.859 78.47 120.859 86.4V96.17C120.859 103.28 126.349 109.18 133.439 109.69Z" fill="white"/>
<path d="M132.269 102.7C138.571 102.7 143.679 97.5916 143.679 91.29C143.679 84.9884 138.571 79.88 132.269 79.88C125.968 79.88 120.859 84.9884 120.859 91.29C120.859 97.5916 125.968 102.7 132.269 102.7Z" fill="black"/>
<path d="M127.809 92.65C130.841 92.65 133.299 90.192 133.299 87.16C133.299 84.1279 130.841 81.67 127.809 81.67C124.777 81.67 122.319 84.1279 122.319 87.16C122.319 90.192 124.777 92.65 127.809 92.65Z" fill="white"/>
<path d="M82.6994 107L83.3694 107.05C91.2294 107.64 97.9394 101.42 97.9394 93.53V82.9C97.9394 75.93 92.6494 70.1 85.7194 69.41L85.0494 69.34C77.0794 68.55 70.1594 74.82 70.1594 82.83V93.48C70.1594 100.57 75.6294 106.46 82.6994 107Z" fill="white"/>
<path d="M81.5794 99.59C87.881 99.59 92.9894 94.4816 92.9894 88.18C92.9894 81.8785 87.881 76.77 81.5794 76.77C75.2779 76.77 70.1694 81.8785 70.1694 88.18C70.1694 94.4816 75.2779 99.59 81.5794 99.59Z" fill="black"/>
<path d="M77.2495 89.37C80.2815 89.37 82.7395 86.9121 82.7395 83.88C82.7395 80.848 80.2815 78.39 77.2495 78.39C74.2174 78.39 71.7595 80.848 71.7595 83.88C71.7595 86.9121 74.2174 89.37 77.2495 89.37Z" fill="white"/>
</svg>
